<?xml version="1.0" encoding="utf-8"?>
<!-- Generator: Adobe Illustrator 21.0.0, SVG Export Plug-In . SVG Version: 6.00 Build 0)  -->
<svg version="1.1" id="Capa_1" xmlns="http://www.w3.org/2000/svg" xmlns:xlink="http://www.w3.org/1999/xlink" x="0px" y="0px"
	 viewBox="0 0 411 266.3" style="enable-background:new 0 0 411 266.3;" xml:space="preserve">
<style type="text/css">
	.st0{fill:#FF0000;}
</style>
<g>
	<g>
		<path class="st0" d="M122.5,157.8c11.5-6.2,22.3-14.1,32.5-22.4c20.2-16.4,38.7-36.4,50-60.1c7.2-15,11.3-31.2,11.5-47.9
			c0-6.4-10-6.4-10,0c-0.3,49.5-38.9,89.5-78,115c-3.6,2.3-7.2,4.7-11,6.7C111.8,152.2,116.8,160.9,122.5,157.8L122.5,157.8z"/>
	</g>
</g>
<g>
	<g>
		<path class="st0" d="M218.2,12.2c-2.3,10.3-1.7,21.4-0.3,31.8c3.5,25.7,14.8,49.5,30.6,69.9c13.5,17.2,30,31.6,47.9,44
			c5.3,3.7,10.3-5,5-8.6c-41-28.4-77-73-74.6-125.5c0.1-1.4,0.2-2.9,0.3-4.3c0.1-0.6,0.4-3.6,0.2-1.9c0.1-0.9,0.3-1.8,0.5-2.7
			C229.2,8.6,219.6,5.9,218.2,12.2L218.2,12.2z"/>
	</g>
</g>
<g>
	<g>
		<path class="st0" d="M140.5,84.3c12.4,8.9,27.5,15,42.2,18.8c30.5,8,62.1,4.1,88.9-12.8c5.4-3.4,0.4-12.1-5-8.6
			c-25.3,16.1-54.9,19.3-83.6,11.2c-13-3.7-26.3-9.2-37.4-17.2C140.3,71.9,135.3,80.6,140.5,84.3L140.5,84.3z"/>
	</g>
</g>
<path d="M83.2,208.3l1.2,1.3c-1.9,2.1-4.1,4.1-6.7,5.8c-2.6,1.7-4.7,2.6-6.3,2.6c-0.7,0-1.4-0.3-1.8-0.8c-0.5-0.6-0.7-1.3-0.7-2.3
	c0-1.9,0.7-5.9,2.2-12L75,187c1.4-5.7,2.6-9.6,3.6-11.5c1.5-3,3.6-5.2,6.3-6.9c2.7-1.6,5.6-2.4,8.6-2.4c1,0,1.8,0.2,2.4,0.7
	c0.6,0.5,0.9,1.1,0.9,1.8c0,0.8-0.3,1.4-0.9,1.9c-0.6,0.5-1.4,0.7-2.5,0.7c-0.7,0-1.7-0.1-3.1-0.4c-1.2-0.2-2.2-0.3-3.2-0.3
	c-1,0-1.7,0.2-2.2,0.6c-0.7,0.6-1.3,1.8-1.9,3.6c-0.6,1.8-1.5,5.5-2.8,10.9L76.7,201c-1.8,7.6-2.7,11.6-2.7,11.9
	c0,0.8,0.3,1.2,0.8,1.2c0.5,0,1.3-0.3,2.3-0.9C79.2,211.8,81.2,210.2,83.2,208.3z"/>
<path d="M104.8,207.9l1.2,1.6c-5.9,5.6-11,8.4-15.2,8.4c-1.7,0-3-0.6-3.9-1.7c-0.9-1.2-1.4-3-1.4-5.6c0-5.2,1.6-10.3,4.7-15.4
	c3.5-5.8,7.7-8.7,12.6-8.7c1.7,0,3,0.4,3.9,1.3c0.9,0.9,1.4,2,1.4,3.5c0,1.6-0.5,3.1-1.6,4.6s-3,3.1-5.8,4.7c-1.4,0.8-4.4,2.2-9,4.3
	c-0.2,1.3-0.3,2.5-0.3,3.7c0,1.7,0.3,2.9,0.8,3.6c0.5,0.7,1.3,1,2.4,1c1,0,2.1-0.3,3.3-0.8C99.4,211.7,101.8,210.2,104.8,207.9z
	 M92.2,202.7c3.9-1.7,6.8-3.6,8.7-5.6c1.3-1.4,2-2.8,2-4.2c0-1-0.3-1.9-0.8-2.5c-0.5-0.6-1.2-0.9-2.1-0.9c-0.9,0-1.8,0.3-2.6,1
	c-1.1,0.9-2.1,2.2-2.9,4C93.4,197.2,92.6,199.9,92.2,202.7z"/>
<path d="M114.4,193.9l-1-1.4c2.6-2.2,4.8-3.8,6.7-4.8c1.3-0.7,2.2-1,2.9-1c0.9,0,1.7,0.5,2.2,1.4c0.8,1.3,1.6,4.1,2.3,8.5
	c3-4.4,5.6-7.4,7.9-9.1c2.3-1.7,4.2-2.5,5.7-2.5c0.8,0,1.4,0.2,1.9,0.7c0.5,0.5,0.7,1,0.7,1.7c0,0.8-0.3,1.4-1,1.9
	c-0.5,0.3-1.8,0.6-3.9,0.7c-1.8,0.1-3.3,0.7-4.6,1.8c-2.1,1.8-4.2,4.3-6.1,7.7l2.3,10.8c1,4.7,2,8.3,3.1,10.6c1.1,2.3,2.4,4,4,5.3
	c0.9,0.7,1.9,1,3,1c1.5,0,2.7-0.9,3.4-2.8c0.5-1.2,1.2-1.8,2.2-1.8c0.5,0,0.9,0.2,1.3,0.6c0.4,0.4,0.5,0.9,0.5,1.5
	c0,1.2-0.7,2.3-2,3.3c-1.3,1-3.1,1.5-5.2,1.5c-2.3,0-4.5-0.7-6.6-2.2c-2.1-1.5-3.9-3.8-5.5-7c-1.5-3.2-2.9-8.3-4.2-15.3
	c-0.5,0.7-1.3,1.7-2.3,3.3c-3,4.3-5.4,7-7,8.3c-1.7,1.2-3.3,1.8-4.8,1.8c-1.1,0-1.9-0.3-2.6-0.9c-0.7-0.6-1-1.3-1-2.1
	c0-0.7,0.2-1.3,0.7-1.8c0.5-0.5,1-0.7,1.6-0.7c0.6,0,1.3,0.4,1.9,1.2c0.6,0.7,1.1,1.1,1.6,1.1c0.3,0,0.7-0.1,1.1-0.3
	c0.6-0.3,1.4-1.1,2.4-2.2c1.4-1.6,2.6-2.9,3.3-4l4.5-6.6l-1.5-6.8c-0.4-1.8-0.8-3-1.2-3.5c-0.4-0.5-0.8-0.8-1.3-0.8
	c-0.4,0-0.9,0.2-1.5,0.6C116.7,192,115.5,192.9,114.4,193.9z"/>
<g>
	<path d="M186.9,174.9c-2.4,4.2-4.7,9.5-7,16c-1.6,4.6-2.4,8.4-2.4,11.5c0,3.4,0.8,6.1,2.5,8s3.7,2.9,6.2,2.9c2.3,0,4.6-0.6,6.6-1.8
		c2.7-1.5,5.3-3.9,7.6-7.1c2.3-3.2,4.2-7,5.7-11.4s2.2-8.6,2.2-12.4c0-2.7-0.6-5.2-1.7-7.6c-0.6-1.2-1-1.9-1-2.2
		c-0.1-0.3-0.1-0.7-0.1-1.1c0-0.7,0.2-1.3,0.7-1.7c0.4-0.4,1-0.7,1.6-0.7c1.1,0,2,0.6,2.6,1.8c0.9,1.6,1.4,4.1,1.4,7.4
		c0,7.2-1.6,14.3-4.7,21.5c-3.1,7.1-6.8,12.2-10.9,15.3c-4.1,3.1-8.4,4.6-13,4.6c-3.7,0-6.5-1.2-8.5-3.7s-3-5.5-3-9.1
		c0-3,0.5-6,1.4-9.1c1.2-4.1,3.7-10.1,7.4-18.2c-2.9-0.1-5.6,0.3-7.9,1.1c-2.3,0.8-4,1.8-5,3c-1,1.2-1.5,2.4-1.5,3.6
		c0,0.5,0.3,1.2,0.8,2c0.6,1,0.8,1.7,0.8,2.2c0,0.7-0.2,1.2-0.6,1.7c-0.4,0.4-1,0.7-1.6,0.7c-0.8,0-1.5-0.4-2-1.1
		c-0.6-0.7-0.9-1.6-0.9-2.7c0-1.8,0.5-3.6,1.6-5.4c1.1-1.8,2.4-3.3,4.1-4.4s3.8-1.9,6.2-2.4c1.2-0.3,3.8-0.5,7.6-0.7
		C184.7,175.1,186.3,175,186.9,174.9z"/>
	<path d="M233.1,209.3l0.7,2c-5.6,4.4-10.3,6.6-14.2,6.6c-2,0-3.5-0.7-4.5-2.2c-0.9-1.5-1.4-3.3-1.4-5.5c0-3.7,1-7.5,3-11.4
		c2-3.9,4.4-6.9,7.2-9c2.2-1.6,4.7-2.4,7.5-2.4c1.7,0,3.1,0.3,3.9,1c0.9,0.7,1.3,1.5,1.3,2.4c0,0.7-0.2,1.3-0.7,1.8s-1.1,0.7-2,0.7
		c-0.8,0-1.9-0.4-3.2-1.1c-1.3-0.8-2.5-1.2-3.3-1.2c-1.2,0-2.3,0.5-3.4,1.6c-1.1,1-2.2,3.1-3.3,6.1c-1,3-1.6,6-1.6,9
		c0,2.2,0.4,4,1.3,5.2c0.6,0.9,1.5,1.4,2.7,1.4C226,214.1,229.3,212.5,233.1,209.3z"/>
	<path d="M266.5,209.5l0.9,1.3c-2.2,2.4-4.4,4.3-6.7,5.7c-1.6,1-2.8,1.4-3.8,1.4c-0.8,0-1.5-0.3-2-1s-0.8-1.7-0.8-3.1
		c0-0.9,0.2-2.3,0.6-4.1s1.5-5.7,3.3-11.6c0.8-2.9,1.2-4.6,1.2-5.1c0-0.8-0.4-1.1-1.2-1.1c-1,0-2.2,0.5-3.7,1.5
		c-2.1,1.4-3.9,3.1-5.5,5.2c-1,1.3-1.8,3.3-2.4,6l-2.8,12.3h-5.2c1.1-4.1,2-7.5,2.6-10.1l5.2-22.6c0.9-4.2,2.2-7.4,3.7-9.6
		c1.5-2.3,3.5-4.1,6-5.4c2.5-1.3,4.9-2,7.3-2c1,0,1.8,0.3,2.4,0.8c0.6,0.5,0.9,1.1,0.9,1.9c0,0.6-0.3,1.2-0.9,1.7
		c-0.6,0.5-1.4,0.7-2.3,0.7c-0.6,0-1.3-0.1-2.2-0.2c-2-0.3-3.4-0.4-4.2-0.4c-1.1,0-2,0.4-2.6,1.3c-0.7,0.9-1.4,2.9-2.1,6.2
		l-3.9,17.4c2.8-2.9,5.8-5.4,9.1-7.4c1.9-1.2,3.5-1.8,4.7-1.8c0.9,0,1.6,0.3,2.2,0.8s0.8,1.3,0.8,2.3c0,0.8-0.1,1.6-0.3,2.4
		c-0.3,1.4-1,3.9-2.2,7.5c-1.5,5-2.4,8.2-2.7,9.4c-0.3,1.2-0.4,2.3-0.4,3.3c0,0.4,0.1,0.7,0.2,0.8c0.1,0.2,0.3,0.3,0.6,0.3
		c0.6,0,1.6-0.7,3.2-2C264.2,211.4,265.3,210.5,266.5,209.5z"/>
	<path d="M294,186.8l2.3-0.5l-2.6,8.9c-1.1,3.5-2.1,7.6-3,12.3c-0.5,2.5-0.8,4.1-0.8,4.9c0,0.7,0.3,1.1,0.9,1.1c0.4,0,1-0.2,1.8-0.7
		c1.5-0.9,2.9-1.9,4.2-3.2l1.1,1.4c-2.7,2.4-4.4,3.9-5.1,4.4c-1.5,1-2.9,1.8-4.3,2.3c-0.9,0.3-1.8,0.5-2.6,0.5
		c-0.6,0-1.1-0.1-1.4-0.4c-0.3-0.3-0.5-0.7-0.5-1.2c0-0.4,0.1-0.8,0.3-1.4l1.4-4.8c-2,2.4-4.4,4.5-7.2,6.2c-1.7,1.1-3.3,1.6-4.7,1.6
		c-1.4,0-2.4-0.5-3.1-1.4c-1-1.3-1.5-3-1.5-5.1c0-2.5,0.7-5.3,2-8.3c1.3-3.1,3.1-5.8,5.3-8.3s4.6-4.3,7-5.5c1.9-0.9,4.3-1.3,7.3-1.3
		c0.8,0,1.5,0,2.3,0.1L294,186.8z M289.6,192.2c-1.3-0.3-2.3-0.4-3.2-0.4c-2.1,0-4,0.6-5.5,1.7c-1.6,1.2-3,3.3-4.4,6.3
		c-1.4,3-2,6-2,9c0,1.6,0.3,2.7,0.8,3.5c0.5,0.7,1.2,1.1,2.1,1.1c1.6,0,3.4-0.9,5.2-2.6c1.9-1.7,3.2-4.3,4.1-7.6L289.6,192.2z"/>
	<path d="M315.7,187.4c2.1,0,3.7,0.4,4.8,1.2c1.1,0.8,1.7,1.7,1.7,2.8c0,0.6-0.2,1.2-0.7,1.7c-0.5,0.5-1.1,0.7-1.7,0.7
		c-0.4,0-0.8-0.1-1.2-0.3c-0.3-0.2-0.8-0.7-1.4-1.5c-1.2-1.5-2.3-2.3-3.4-2.3c-1,0-1.8,0.4-2.6,1.1c-0.7,0.7-1.1,1.7-1.1,2.8
		c0,1,0.2,1.9,0.7,2.8c0.5,0.9,1.7,2.4,3.6,4.4c2.6,2.8,3.9,5.4,3.9,7.9c0,2.5-1.1,4.7-3.2,6.5c-2.1,1.9-4.8,2.8-8.2,2.8
		c-2.8,0-4.9-0.6-6.2-1.7c-1.4-1.1-2-2.5-2-4.2c0-0.8,0.3-1.5,0.8-2c0.5-0.5,1.2-0.8,1.9-0.8c0.7,0,1.2,0.2,1.7,0.7
		c0.5,0.4,0.7,0.9,0.7,1.5c0,0.2,0,0.5,0,0.9c0,0.3,0,0.6,0,0.8c0,0.8,0.3,1.4,1,2c0.6,0.5,1.5,0.8,2.6,0.8c1.3,0,2.4-0.2,3.3-0.7
		s1.7-1.1,2.2-2c0.5-0.9,0.8-1.8,0.8-2.6c0-0.8-0.3-1.7-0.8-2.5c-0.5-0.8-1.6-2.2-3.4-4.2c-2.4-2.7-3.7-5.3-3.7-7.8
		c0-2.3,0.9-4.3,2.8-6C310.5,188.2,312.9,187.4,315.7,187.4z"/>
	<path d="M347.4,186.8l2.3-0.5l-2.6,8.9c-1.1,3.5-2.1,7.6-3,12.3c-0.5,2.5-0.8,4.1-0.8,4.9c0,0.7,0.3,1.1,0.9,1.1
		c0.4,0,1-0.2,1.8-0.7c1.5-0.9,2.9-1.9,4.2-3.2l1.1,1.4c-2.7,2.4-4.4,3.9-5.1,4.4c-1.5,1-2.9,1.8-4.3,2.3c-0.9,0.3-1.8,0.5-2.6,0.5
		c-0.6,0-1.1-0.1-1.4-0.4c-0.3-0.3-0.5-0.7-0.5-1.2c0-0.4,0.1-0.8,0.3-1.4l1.4-4.8c-2,2.4-4.4,4.5-7.2,6.2c-1.7,1.1-3.3,1.6-4.7,1.6
		c-1.4,0-2.4-0.5-3.1-1.4c-1-1.3-1.5-3-1.5-5.1c0-2.5,0.7-5.3,2-8.3c1.3-3.1,3.1-5.8,5.3-8.3s4.6-4.3,7-5.5c1.9-0.9,4.3-1.3,7.3-1.3
		c0.8,0,1.5,0,2.3,0.1L347.4,186.8z M343,192.2c-1.3-0.3-2.3-0.4-3.2-0.4c-2.1,0-4,0.6-5.5,1.7c-1.6,1.2-3,3.3-4.4,6.3
		c-1.4,3-2,6-2,9c0,1.6,0.3,2.7,0.8,3.5c0.5,0.7,1.2,1.1,2.1,1.1c1.6,0,3.4-0.9,5.2-2.6c1.9-1.7,3.2-4.3,4.1-7.6L343,192.2z"/>
	<path d="M360.2,217h-5.2l2.5-9.5c1.2-4.6,2.2-9.1,3.1-13.2c0.2-1,0.3-1.7,0.3-1.9c0-0.6-0.3-0.8-0.8-0.8c-0.4,0-0.9,0.2-1.6,0.7
		c-0.7,0.5-2,1.7-3.9,3.6l-1.1-1.2c2.3-2.4,4.5-4.2,6.7-5.4c2.2-1.2,4-1.8,5.2-1.8c0.4,0,0.8,0.1,1,0.3c0.2,0.2,0.4,0.5,0.4,0.8
		c0,0.3-0.2,1.1-0.5,2.4l-1.5,6.3c2.4-3.7,5.1-7,8-9.6c1.4-1.3,2.6-1.9,3.6-1.9c0.7,0,1.3,0.2,1.8,0.7s0.7,1,0.7,1.6
		c0,0.6-0.2,1.2-0.7,1.6s-1.6,1-3.4,1.6c-1.7,0.6-3.2,1.3-4.2,2.1c-1.1,0.8-2.3,2.1-3.6,3.8c-1.3,1.7-2.2,3.2-2.7,4.4
		c-0.5,1.3-1.3,4.2-2.4,8.8L360.2,217z"/>
	<path d="M399.3,186.8l2.3-0.5l-2.6,8.9c-1.1,3.5-2.1,7.6-3,12.3c-0.5,2.5-0.8,4.1-0.8,4.9c0,0.7,0.3,1.1,0.9,1.1
		c0.4,0,1-0.2,1.8-0.7c1.5-0.9,2.9-1.9,4.2-3.2l1.1,1.4c-2.7,2.4-4.4,3.9-5.1,4.4c-1.5,1-2.9,1.8-4.3,2.3c-0.9,0.3-1.8,0.5-2.6,0.5
		c-0.6,0-1.1-0.1-1.4-0.4c-0.3-0.3-0.5-0.7-0.5-1.2c0-0.4,0.1-0.8,0.3-1.4l1.4-4.8c-2,2.4-4.4,4.5-7.2,6.2c-1.7,1.1-3.3,1.6-4.7,1.6
		c-1.4,0-2.4-0.5-3.1-1.4c-1-1.3-1.5-3-1.5-5.1c0-2.5,0.7-5.3,2-8.3c1.3-3.1,3.1-5.8,5.3-8.3s4.6-4.3,7-5.5c1.9-0.9,4.3-1.3,7.3-1.3
		c0.8,0,1.5,0,2.3,0.1L399.3,186.8z M394.9,192.2c-1.3-0.3-2.3-0.4-3.2-0.4c-2.1,0-4,0.6-5.5,1.7c-1.6,1.2-3,3.3-4.4,6.3
		c-1.4,3-2,6-2,9c0,1.6,0.3,2.7,0.8,3.5c0.5,0.7,1.2,1.1,2.1,1.1c1.6,0,3.4-0.9,5.2-2.6c1.9-1.7,3.2-4.3,4.1-7.6L394.9,192.2z"/>
</g>
<g>
	<path d="M114.5,241.6l0.1-0.6c1.1-0.1,2.3-0.3,3.8-0.6c-0.4,1.1-0.8,2.3-1.1,3.7l-1,4.1c-0.7,2.9-1.5,5.2-2.3,6.7
		c0.8,0.2,1.6,0.2,2.2,0.2c1.7,0,3.2-0.4,4.5-1.1c1.3-0.7,2.3-1.8,3-3.1s1.1-2.9,1.1-4.6c0-2.2-0.6-3.9-1.9-5.3c-1.3-1.3-2.9-2-5-2
		c-1.7,0-3.4,0.4-4.9,1.2s-2.7,1.9-3.6,3.3c-0.9,1.4-1.3,2.7-1.3,3.9c0,1.3,0.5,2.2,1.6,2.8c0.3,0.2,0.5,0.3,0.6,0.5
		s0.1,0.3,0.1,0.5c0,0.2-0.1,0.4-0.3,0.6c-0.2,0.2-0.4,0.3-0.6,0.3c-0.5,0-1-0.3-1.5-1c-0.7-1-1-1.9-1-2.9c0-1.7,0.5-3.3,1.5-4.9
		c1-1.6,2.4-2.8,4.2-3.7s3.8-1.4,6-1.4c2.7,0,4.8,0.7,6.4,2.2c1.6,1.4,2.4,3.3,2.4,5.4c0,2-0.6,3.9-1.7,5.6s-2.5,2.9-4,3.6
		c-1.6,0.7-3.1,1.1-4.7,1.1c-0.5,0-1.4,0-2.6-0.1c-1.1-0.1-2.1-0.1-3-0.1c-0.4,0-1.1,0-2,0l0.3-0.7c0.9,0,1.5-0.1,1.7-0.2
		s0.4-0.3,0.6-0.5c0.3-0.4,0.7-1.4,1.2-2.9l1-3.8l1.2-4.8c0.1-0.2,0.1-0.4,0.1-0.6c0-0.2,0-0.3-0.1-0.4c-0.1-0.1-0.2-0.1-0.4-0.1
		C114.9,241.5,114.7,241.5,114.5,241.6z"/>
	<path d="M129,246.7l-0.6-0.5c1-1.1,1.9-1.8,2.7-2.3c0.8-0.5,1.5-0.7,2.1-0.7c0.3,0,0.6,0.1,0.7,0.2c0.2,0.1,0.2,0.3,0.2,0.6
		c0,0.3-0.3,1.5-0.9,3.6c-1,3.5-1.5,5.6-1.5,6.3c0,0.1,0,0.3,0.1,0.3c0.1,0.1,0.1,0.1,0.2,0.1c0.3,0,1.1-0.6,2.4-1.8l0.6,0.6
		c-1.3,1.3-2.3,2.1-2.9,2.4s-1.1,0.5-1.5,0.5c-0.3,0-0.6-0.1-0.8-0.3s-0.3-0.5-0.3-0.9c0-1.2,0.7-4.2,2.2-9c0.1-0.2,0.1-0.4,0.1-0.6
		c0-0.2-0.1-0.3-0.3-0.3c-0.2,0-0.4,0.1-0.7,0.2S129.9,245.9,129,246.7z M134.8,237c0.3,0,0.6,0.1,0.7,0.3c0.2,0.2,0.3,0.5,0.3,0.8
		c0,0.4-0.1,0.8-0.4,1.1c-0.3,0.3-0.6,0.5-1,0.5c-0.3,0-0.5-0.1-0.7-0.3s-0.3-0.5-0.3-0.8c0-0.4,0.1-0.8,0.4-1.1
		C134.1,237.2,134.4,237,134.8,237z"/>
	<path d="M142.2,243.3c0.9,0,1.5,0.2,2,0.5c0.5,0.3,0.7,0.7,0.7,1.2c0,0.3-0.1,0.5-0.3,0.7s-0.4,0.3-0.7,0.3c-0.2,0-0.3,0-0.5-0.1
		c-0.1-0.1-0.3-0.3-0.6-0.6c-0.5-0.6-1-1-1.4-1c-0.4,0-0.8,0.2-1.1,0.5c-0.3,0.3-0.5,0.7-0.5,1.1c0,0.4,0.1,0.8,0.3,1.2
		c0.2,0.4,0.7,1,1.5,1.8c1.1,1.2,1.6,2.2,1.6,3.3s-0.4,1.9-1.3,2.7s-2,1.2-3.4,1.2c-1.2,0-2-0.2-2.6-0.7c-0.6-0.5-0.8-1.1-0.8-1.8
		c0-0.3,0.1-0.6,0.3-0.8s0.5-0.3,0.8-0.3c0.3,0,0.5,0.1,0.7,0.3c0.2,0.2,0.3,0.4,0.3,0.6c0,0.1,0,0.2,0,0.4c0,0.1,0,0.2,0,0.3
		c0,0.3,0.1,0.6,0.4,0.8c0.3,0.2,0.6,0.3,1.1,0.3c0.5,0,1-0.1,1.4-0.3s0.7-0.5,0.9-0.8c0.2-0.4,0.3-0.7,0.3-1.1
		c0-0.4-0.1-0.7-0.3-1.1c-0.2-0.4-0.7-0.9-1.4-1.7c-1-1.1-1.5-2.2-1.5-3.3c0-1,0.4-1.8,1.2-2.5S141,243.3,142.2,243.3z"/>
	<path d="M153,252l0.5,0.6c-2.4,2.3-4.4,3.4-6.2,3.4c-0.7,0-1.2-0.2-1.6-0.7s-0.5-1.2-0.5-2.3c0-2.1,0.6-4.2,1.9-6.2
		c1.4-2.4,3.1-3.5,5.1-3.5c0.7,0,1.2,0.2,1.6,0.5s0.5,0.8,0.5,1.4c0,0.6-0.2,1.3-0.7,1.9s-1.2,1.3-2.4,1.9c-0.6,0.3-1.8,0.9-3.6,1.7
		c-0.1,0.5-0.1,1-0.1,1.5c0,0.7,0.1,1.2,0.3,1.5s0.5,0.4,1,0.4c0.4,0,0.8-0.1,1.3-0.3C150.8,253.5,151.8,252.9,153,252z
		 M147.9,249.9c1.6-0.7,2.8-1.5,3.5-2.3c0.5-0.6,0.8-1.1,0.8-1.7c0-0.4-0.1-0.8-0.3-1c-0.2-0.2-0.5-0.4-0.9-0.4
		c-0.4,0-0.7,0.1-1.1,0.4c-0.5,0.4-0.8,0.9-1.2,1.6C148.4,247.7,148.1,248.8,147.9,249.9z"/>
	<path d="M156,246.8l-0.5-0.5c1.3-1.2,2.2-2,3-2.4s1.4-0.6,1.9-0.6c0.2,0,0.4,0,0.5,0.1s0.2,0.2,0.2,0.3c0,0.1,0,0.2-0.1,0.5
		l-0.7,2.9c1-1.1,2.2-2.1,3.7-3.1c0.8-0.5,1.5-0.7,2-0.7c0.4,0,0.7,0.1,0.9,0.4s0.3,0.6,0.3,1.1c0,0.3,0,0.6-0.1,1
		c-0.2,0.6-0.6,2-1.2,4.1c-0.6,2-0.9,3.3-0.9,4c0,0.2,0,0.4,0.1,0.5c0.1,0.1,0.1,0.2,0.2,0.2c0.3,0,0.7-0.3,1.3-0.8
		c0.4-0.4,0.9-0.8,1.3-1.1l0.4,0.5c-0.9,1-1.8,1.8-2.8,2.4c-0.6,0.4-1.1,0.6-1.5,0.6c-0.4,0-0.7-0.1-0.9-0.4
		c-0.2-0.3-0.3-0.7-0.3-1.3c0-0.9,0.5-3,1.6-6.5c0.3-1.2,0.5-1.9,0.5-2.2c0-0.3-0.2-0.5-0.5-0.5c-0.4,0-0.9,0.2-1.5,0.6
		c-0.9,0.6-1.7,1.3-2.3,2.1c-0.4,0.5-0.7,1.4-1,2.5l-1.2,5.1h-2.2c0.4-1.5,0.8-2.9,1.1-4.2l1.3-5.6c0-0.2,0.1-0.4,0.1-0.5
		c0-0.3-0.1-0.4-0.3-0.4c-0.2,0-0.4,0.1-0.7,0.3C157.1,245.7,156.5,246.2,156,246.8z M167.9,238.3h0.8c-0.3,0.9-0.7,1.6-1.2,2.1
		s-1.1,0.7-1.7,0.7c-0.3,0-0.6,0-0.8-0.1c-0.1,0-0.5-0.2-1-0.4c-0.5-0.3-0.9-0.4-1-0.5c-0.2-0.1-0.4-0.1-0.6-0.1
		c-0.3,0-0.5,0.1-0.7,0.2s-0.4,0.4-0.6,0.8h-0.8c0.2-1,0.6-1.7,1.1-2.1s1-0.7,1.6-0.7c0.4,0,1.1,0.2,1.9,0.5
		c0.8,0.3,1.4,0.5,1.7,0.5c0.3,0,0.6-0.1,0.8-0.3C167.7,238.8,167.8,238.6,167.9,238.3z"/>
	<path d="M179.3,243.1l1-0.2l-1.1,3.7c-0.4,1.5-0.9,3.2-1.2,5.1c-0.2,1-0.3,1.7-0.3,2s0.1,0.5,0.4,0.5c0.2,0,0.4-0.1,0.7-0.3
		c0.6-0.4,1.2-0.8,1.7-1.3l0.5,0.6c-1.1,1-1.8,1.6-2.1,1.8c-0.6,0.4-1.2,0.7-1.8,1c-0.4,0.1-0.7,0.2-1.1,0.2c-0.3,0-0.4-0.1-0.6-0.2
		s-0.2-0.3-0.2-0.5c0-0.1,0-0.3,0.1-0.6l0.6-2c-0.8,1-1.8,1.9-3,2.6c-0.7,0.4-1.4,0.7-2,0.7c-0.6,0-1-0.2-1.3-0.6
		c-0.4-0.5-0.6-1.2-0.6-2.1c0-1,0.3-2.2,0.8-3.5s1.3-2.4,2.2-3.5s1.9-1.8,2.9-2.3c0.8-0.4,1.8-0.6,3-0.6c0.3,0,0.6,0,1,0.1
		L179.3,243.1z M177.5,245.3c-0.5-0.1-1-0.2-1.3-0.2c-0.9,0-1.6,0.2-2.3,0.7c-0.7,0.5-1.3,1.4-1.8,2.6c-0.6,1.3-0.8,2.5-0.8,3.8
		c0,0.7,0.1,1.1,0.3,1.4s0.5,0.4,0.9,0.4c0.7,0,1.4-0.4,2.2-1.1c0.8-0.7,1.3-1.8,1.7-3.1L177.5,245.3z"/>
	<path d="M193.2,252.6l0.4,0.6c-1.3,1.1-2.3,1.8-2.9,2.2c-0.9,0.5-1.6,0.7-2.1,0.7c-0.2,0-0.4-0.1-0.6-0.2c-0.1-0.1-0.2-0.3-0.2-0.4
		s0.1-0.4,0.2-0.8l0.5-1.8c-1.2,1.3-2.1,2.1-2.9,2.6c-0.8,0.4-1.5,0.7-2.1,0.7c-0.5,0-1-0.2-1.3-0.7c-0.4-0.5-0.5-1.1-0.5-2
		c0-1.4,0.5-3,1.4-4.8s2-3.1,3.2-4s2.2-1.3,3.2-1.3c0.2,0,0.5,0,1,0.1c0.5-1.9,0.9-3.3,1.3-4.2s1-1.6,1.6-2.3
		c0.7-0.6,1.4-1.1,2.3-1.5c0.9-0.3,1.7-0.5,2.4-0.5c0.4,0,0.7,0.1,0.9,0.3s0.4,0.5,0.4,0.8c0,0.3-0.1,0.5-0.3,0.7
		c-0.2,0.2-0.5,0.3-0.9,0.3c-0.2,0-0.7,0-1.4-0.1s-1.1-0.1-1.4-0.1c-0.3,0-0.6,0.1-0.9,0.3c-0.3,0.2-0.5,0.7-0.7,1.4
		c-0.2,0.4-0.5,1.8-1.1,4.2l-2.1,8.8c-0.2,1-0.4,1.7-0.4,2.1c0,0.4,0.1,0.6,0.4,0.6c0.2,0,0.4-0.1,0.6-0.2
		C191.6,253.8,192.3,253.4,193.2,252.6z M190.1,245.1c-0.8-0.2-1.3-0.3-1.7-0.3c-0.7,0-1.3,0.3-1.9,0.8s-1.2,1.5-1.8,3
		c-0.6,1.5-0.9,2.8-0.9,3.9c0,0.5,0.1,0.9,0.4,1.2c0.3,0.3,0.6,0.5,0.9,0.5c0.4,0,0.9-0.2,1.4-0.5c0.8-0.5,1.3-1.2,1.8-2
		c0.3-0.5,0.6-1.7,1.1-3.6L190.1,245.1z"/>
	<path d="M202.4,243.3c1,0,1.8,0.4,2.4,1.1s1,1.8,1,3.2c0,2.2-0.8,4.1-2.3,5.8s-3.1,2.6-4.8,2.6c-1,0-1.9-0.3-2.5-1s-1-1.6-1-2.8
		c0-2.1,0.6-3.9,1.8-5.7C198.4,244.4,200.2,243.3,202.4,243.3z M201.2,244.4c-0.8,0-1.6,0.6-2.4,1.8c-0.8,1.2-1.2,2.8-1.2,4.9
		c0,1.3,0.2,2.3,0.7,3c0.4,0.5,0.8,0.8,1.4,0.8c0.8,0,1.6-0.5,2.2-1.5c0.9-1.3,1.3-3,1.3-4.9c0-1.5-0.2-2.5-0.6-3.1
		C202.2,244.8,201.7,244.4,201.2,244.4z"/>
	<path d="M209.8,255.7h-2.2l1-3.9c0.5-1.9,0.9-3.8,1.3-5.5c0.1-0.4,0.1-0.7,0.1-0.8c0-0.2-0.1-0.4-0.3-0.4c-0.1,0-0.4,0.1-0.7,0.3
		s-0.8,0.7-1.6,1.5l-0.5-0.5c0.9-1,1.9-1.8,2.8-2.3c0.9-0.5,1.6-0.8,2.1-0.8c0.2,0,0.3,0,0.4,0.1c0.1,0.1,0.2,0.2,0.2,0.3
		c0,0.1-0.1,0.5-0.2,1l-0.6,2.6c1-1.6,2.1-2.9,3.3-4c0.6-0.5,1.1-0.8,1.5-0.8c0.3,0,0.5,0.1,0.7,0.3c0.2,0.2,0.3,0.4,0.3,0.7
		c0,0.3-0.1,0.5-0.3,0.7c-0.2,0.2-0.7,0.4-1.4,0.7c-0.7,0.2-1.3,0.5-1.8,0.9c-0.5,0.3-1,0.9-1.5,1.6c-0.5,0.7-0.9,1.3-1.1,1.8
		c-0.2,0.5-0.5,1.7-1,3.6L209.8,255.7z"/>
</g>
<g>
	<path d="M233.9,241.6l0.1-0.6c1.1-0.1,2.3-0.3,3.8-0.6c-0.4,1.1-0.8,2.3-1.1,3.7l-1,4.1c-0.7,2.9-1.5,5.2-2.3,6.7
		c0.8,0.2,1.6,0.2,2.2,0.2c1.7,0,3.2-0.4,4.5-1.1c1.3-0.7,2.3-1.8,3-3.1c0.7-1.4,1.1-2.9,1.1-4.6c0-2.2-0.6-3.9-1.9-5.3
		c-1.3-1.3-2.9-2-5-2c-1.7,0-3.4,0.4-4.9,1.2s-2.7,1.9-3.6,3.3c-0.9,1.4-1.3,2.7-1.3,3.9c0,1.3,0.5,2.2,1.6,2.8
		c0.3,0.2,0.5,0.3,0.6,0.5c0.1,0.1,0.1,0.3,0.1,0.5c0,0.2-0.1,0.4-0.3,0.6c-0.2,0.2-0.4,0.3-0.6,0.3c-0.5,0-1-0.3-1.5-1
		c-0.7-1-1-1.9-1-2.9c0-1.7,0.5-3.3,1.5-4.9c1-1.6,2.4-2.8,4.2-3.7s3.8-1.4,6-1.4c2.7,0,4.8,0.7,6.4,2.2c1.6,1.4,2.4,3.3,2.4,5.4
		c0,2-0.6,3.9-1.7,5.6s-2.5,2.9-4,3.6c-1.6,0.7-3.1,1.1-4.7,1.1c-0.5,0-1.4,0-2.6-0.1c-1.1-0.1-2.1-0.1-3-0.1c-0.4,0-1.1,0-2,0
		l0.3-0.7c0.9,0,1.5-0.1,1.7-0.2s0.4-0.3,0.6-0.5c0.3-0.4,0.7-1.4,1.2-2.9l1-3.8l1.2-4.8c0.1-0.2,0.1-0.4,0.1-0.6
		c0-0.2,0-0.3-0.1-0.4c-0.1-0.1-0.2-0.1-0.4-0.1C234.2,241.5,234.1,241.5,233.9,241.6z"/>
	<path d="M248.4,246.7l-0.6-0.5c1-1.1,1.9-1.8,2.7-2.3c0.8-0.5,1.5-0.7,2.1-0.7c0.3,0,0.6,0.1,0.7,0.2c0.2,0.1,0.2,0.3,0.2,0.6
		c0,0.3-0.3,1.5-0.9,3.6c-1,3.5-1.5,5.6-1.5,6.3c0,0.1,0,0.3,0.1,0.3c0.1,0.1,0.1,0.1,0.2,0.1c0.3,0,1.1-0.6,2.4-1.8l0.6,0.6
		c-1.3,1.3-2.3,2.1-2.9,2.4s-1.1,0.5-1.5,0.5c-0.3,0-0.6-0.1-0.8-0.3s-0.3-0.5-0.3-0.9c0-1.2,0.7-4.2,2.2-9c0.1-0.2,0.1-0.4,0.1-0.6
		c0-0.2-0.1-0.3-0.3-0.3c-0.2,0-0.4,0.1-0.7,0.2S249.2,245.9,248.4,246.7z M254.1,237c0.3,0,0.6,0.1,0.7,0.3
		c0.2,0.2,0.3,0.5,0.3,0.8c0,0.4-0.1,0.8-0.4,1.1c-0.3,0.3-0.6,0.5-1,0.5c-0.3,0-0.5-0.1-0.7-0.3s-0.3-0.5-0.3-0.8
		c0-0.4,0.1-0.8,0.4-1.1C253.4,237.2,253.7,237,254.1,237z"/>
	<path d="M264.9,243.2l1.2-0.3c-0.7,2.3-1.4,4.6-2,6.9c-0.4,1.6-0.7,3-0.9,4.1c-0.1,0.5-0.1,1.2-0.1,2.1c0,1.4-0.2,2.5-0.5,3.4
		c-0.4,1.2-1.2,2.2-2.3,2.9c-1.1,0.7-2.4,1.1-4,1.1c-1.3,0-2.4-0.3-3.1-0.9c-0.8-0.6-1.1-1.3-1.1-2.1c0-0.8,0.3-1.5,0.9-2.2
		c0.5-0.5,1.4-1.1,2.8-1.9c0.7-0.4,1.4-0.8,2-1.2c-0.7,0.4-1.3,0.6-1.7,0.6c-0.4,0-0.7-0.2-1-0.5c-0.3-0.3-0.4-0.8-0.4-1.3
		c0-1.8,0.5-3.6,1.6-5.4c1.1-1.8,2.4-3.1,3.9-4c0.9-0.5,2.1-0.8,3.5-0.8c0.3,0,0.6,0,1,0L264.9,243.2z M261.3,253.4
		c-0.7,0.6-1.9,1.5-3.8,2.9c-1.7,1.1-2.7,1.9-3.1,2.4c-0.4,0.5-0.6,1-0.6,1.6c0,0.6,0.2,1.1,0.7,1.5s1.1,0.7,1.8,0.7
		c0.7,0,1.3-0.2,1.9-0.5c0.6-0.3,1.2-0.8,1.6-1.4c0.5-0.6,0.8-1.3,1-2.1s0.3-1.8,0.3-3.1C261.2,255.1,261.2,254.4,261.3,253.4z
		 M263.3,245.4c-0.5-0.1-0.9-0.1-1.2-0.1c-0.9,0-1.7,0.2-2.4,0.7c-0.7,0.5-1.2,1.3-1.7,2.5c-0.7,1.6-1,3-1,4.1
		c0,0.5,0.1,0.8,0.4,1.2s0.5,0.5,0.9,0.5c0.4,0,0.9-0.2,1.4-0.6s1-0.8,1.4-1.4s0.7-1.5,1.1-2.9L263.3,245.4z"/>
	<path d="M267.5,246.7l-0.6-0.5c1-1.1,1.9-1.8,2.7-2.3c0.8-0.5,1.5-0.7,2.1-0.7c0.3,0,0.6,0.1,0.7,0.2c0.2,0.1,0.2,0.3,0.2,0.6
		c0,0.3-0.3,1.5-0.9,3.6c-1,3.5-1.5,5.6-1.5,6.3c0,0.1,0,0.3,0.1,0.3c0.1,0.1,0.1,0.1,0.2,0.1c0.3,0,1.1-0.6,2.4-1.8l0.6,0.6
		c-1.3,1.3-2.3,2.1-2.9,2.4s-1.1,0.5-1.5,0.5c-0.3,0-0.6-0.1-0.8-0.3s-0.3-0.5-0.3-0.9c0-1.2,0.7-4.2,2.2-9c0.1-0.2,0.1-0.4,0.1-0.6
		c0-0.2-0.1-0.3-0.3-0.3c-0.2,0-0.4,0.1-0.7,0.2S268.4,245.9,267.5,246.7z M273.3,237c0.3,0,0.6,0.1,0.7,0.3
		c0.2,0.2,0.3,0.5,0.3,0.8c0,0.4-0.1,0.8-0.4,1.1c-0.3,0.3-0.6,0.5-1,0.5c-0.3,0-0.5-0.1-0.7-0.3s-0.3-0.5-0.3-0.8
		c0-0.4,0.1-0.8,0.4-1.1C272.6,237.2,272.9,237,273.3,237z"/>
	<path d="M278.4,241.1l2.3-0.9l-1.1,4.1h3l-0.2,1h-3l-1.3,4.9c-0.4,1.5-0.6,2.5-0.6,3.1c0,0.3,0.1,0.5,0.2,0.6s0.3,0.2,0.5,0.2
		c0.3,0,0.8-0.2,1.4-0.5c0.8-0.5,1.6-1,2.3-1.6l0.6,0.7c-2.1,1.6-3.6,2.6-4.3,3s-1.3,0.5-1.7,0.5c-0.4,0-0.6-0.1-0.9-0.4
		s-0.3-0.7-0.3-1.3c0-0.7,0.2-1.8,0.6-3.2l1.5-5.8h-2.4l0.3-1h2.4L278.4,241.1z"/>
	<path d="M293.9,243.1l1-0.2l-1.1,3.7c-0.4,1.5-0.9,3.2-1.2,5.1c-0.2,1-0.3,1.7-0.3,2s0.1,0.5,0.4,0.5c0.2,0,0.4-0.1,0.7-0.3
		c0.6-0.4,1.2-0.8,1.7-1.3l0.5,0.6c-1.1,1-1.8,1.6-2.1,1.8c-0.6,0.4-1.2,0.7-1.8,1c-0.4,0.1-0.7,0.2-1.1,0.2c-0.3,0-0.4-0.1-0.6-0.2
		s-0.2-0.3-0.2-0.5c0-0.1,0-0.3,0.1-0.6l0.6-2c-0.8,1-1.8,1.9-3,2.6c-0.7,0.4-1.4,0.7-2,0.7c-0.6,0-1-0.2-1.3-0.6
		c-0.4-0.5-0.6-1.2-0.6-2.1c0-1,0.3-2.2,0.8-3.5s1.3-2.4,2.2-3.5s1.9-1.8,2.9-2.3c0.8-0.4,1.8-0.6,3-0.6c0.3,0,0.6,0,1,0.1
		L293.9,243.1z M292,245.3c-0.5-0.1-1-0.2-1.3-0.2c-0.9,0-1.6,0.2-2.3,0.7c-0.7,0.5-1.3,1.4-1.8,2.6c-0.6,1.3-0.8,2.5-0.8,3.8
		c0,0.7,0.1,1.1,0.3,1.4s0.5,0.4,0.9,0.4c0.7,0,1.4-0.4,2.2-1.1c0.8-0.7,1.3-1.8,1.7-3.1L292,245.3z"/>
	<path d="M302.6,252.1l0.5,0.5c-0.8,0.9-1.7,1.6-2.7,2.4c-1,0.7-1.9,1.1-2.6,1.1c-0.3,0-0.6-0.1-0.7-0.3c-0.2-0.2-0.3-0.5-0.3-0.9
		c0-0.8,0.3-2.4,0.9-4.9l1.6-6.4c0.6-2.3,1.1-3.9,1.4-4.7c0.6-1.2,1.5-2.1,2.6-2.8c1.1-0.7,2.3-1,3.5-1c0.4,0,0.7,0.1,1,0.3
		c0.2,0.2,0.4,0.4,0.4,0.7c0,0.3-0.1,0.6-0.4,0.8c-0.2,0.2-0.6,0.3-1,0.3c-0.3,0-0.7,0-1.2-0.1c-0.5-0.1-0.9-0.1-1.3-0.1
		c-0.4,0-0.7,0.1-0.9,0.2c-0.3,0.2-0.5,0.7-0.8,1.5c-0.2,0.7-0.6,2.2-1.1,4.4l-1.5,6.1c-0.7,3.1-1.1,4.7-1.1,4.8
		c0,0.3,0.1,0.5,0.3,0.5c0.2,0,0.5-0.1,0.9-0.4C300.9,253.6,301.7,252.9,302.6,252.1z"/>
</g>
<path d="M55,215l1.6-15l2.8-20.9c0.3-2.2,0.8-4.8,1.6-7.8c-0.2,0.2-0.5,0.4-0.7,0.6l-12.5,13c-3,4-6.3,8.9-10,14.6
	c-6.2,9.5-10.9,15.8-14.1,18.8c-2,1.8-3.7,2.7-5.4,2.7c-0.5,0-1.4-0.2-2.9-0.5c-0.6-0.1-1-0.2-1.4-0.2c-0.6,0-1.1,0.2-1.4,0.6
	c-0.4,0.4-0.6,0.9-0.6,1.6c0,0.8,0.3,1.5,1,2c0.7,0.5,1.7,0.8,3,0.8c2.6,0,5.3-1.2,8.2-3.6c2.9-2.4,7.4-8.3,13.5-17.6
	c5.9-0.1,10.3-0.2,13.1-0.2c-0.4,3.6-0.8,6.1-1.2,7.6c-0.5,2.1-1.1,4-1.9,5.9c2.1-0.3,3.7-0.5,4.7-0.5c0.6,0,2,0.1,4.3,0.4
	c1.3,0.1,2.5,0.2,3.4,0.2c0.7,0,1.4,0,2.3-0.1l0.4-2.1c-1.1,0.2-2.1,0.3-3.1,0.3C58.4,215.7,56.8,215.5,55,215z M51.3,201.3
	c-1,0.1-2,0.1-2.9,0.1c-3.7,0-6.6,0-8.6-0.1l9.3-13.8c0.7-1.1,2.6-3.6,5.7-7.7C53.6,184.3,52.4,191.5,51.3,201.3z"/>
</svg>
